<?xml version="1.0" standalone="no"?>
<!DOCTYPE svg PUBLIC "-//W3C//DTD SVG 20010904//EN"
 "http://www.w3.org/TR/2001/REC-SVG-20010904/DTD/svg10.dtd">
<svg version="1.0" xmlns="http://www.w3.org/2000/svg"
 width="512.000000pt" height="512.000000pt" viewBox="0 0 512.000000 512.000000"
 preserveAspectRatio="xMidYMid meet">
<metadata>
Created by potrace 1.16, written by Peter Selinger 2001-2019
</metadata>
<g transform="translate(0.000000,512.000000) scale(0.100000,-0.100000)"
fill="#000000" stroke="none">
<path d="M2046 4366 c-59 -22 -104 -72 -123 -136 -13 -47 -14 -66 -4 -125 17
-102 16 -110 -18 -162 -52 -82 -77 -103 -111 -96 -39 7 -67 -17 -76 -66 -7
-39 -13 -48 -177 -283 -98 -141 -113 -159 -146 -168 -44 -12 -64 -43 -59 -90
3 -33 2 -33 -52 -45 -70 -14 -109 -35 -147 -79 -84 -95 -65 -195 70 -361 182
-225 472 -437 619 -452 62 -6 114 15 159 64 33 35 42 62 44 138 2 71 27 131
58 138 12 2 29 7 38 11 11 5 47 -23 125 -97 90 -84 117 -105 150 -111 34 -6
49 -19 112 -93 47 -57 76 -101 82 -127 19 -73 26 -83 67 -89 21 -4 72 -23 113
-42 157 -76 224 -139 482 -455 565 -693 570 -699 651 -777 l73 -71 -105 -6
c-210 -12 -222 -21 -39 -30 165 -8 405 -1 483 14 39 8 38 8 -20 9 -56 2 -156
17 -128 20 21 2 73 82 73 111 0 21 -43 77 -183 241 -274 321 -396 467 -532
644 -68 88 -136 174 -150 190 l-27 30 28 -50 c116 -214 486 -713 700 -946 41
-44 74 -87 74 -94 0 -17 -66 -75 -85 -75 -8 0 -25 17 -39 37 -13 21 -81 117
-151 213 -71 96 -171 234 -222 305 -52 72 -115 152 -141 179 -26 27 -41 46
-34 42 6 -4 12 -5 12 -1 0 3 -40 85 -89 183 -66 131 -116 214 -195 322 -154
213 -158 220 -164 357 -5 129 -10 137 -78 155 -43 12 -50 20 -174 194 -71 100
-141 191 -156 203 -15 12 -47 27 -72 33 -44 11 -44 11 -23 27 38 29 60 71 54
105 -4 25 4 44 35 91 23 33 59 78 81 99 37 36 45 40 87 37 96 -5 202 48 240
120 18 36 18 105 -1 159 -42 119 -250 343 -425 459 -233 153 -464 234 -564
197z m194 -61 c98 -33 284 -132 389 -207 47 -34 134 -109 192 -167 86 -87 113
-120 142 -182 49 -101 56 -155 27 -192 -26 -32 -81 -63 -133 -72 -35 -7 -42
-3 -153 85 -64 51 -153 115 -198 143 -44 27 -100 63 -123 79 -24 16 -43 26
-43 22 0 -4 79 -87 175 -184 96 -98 175 -181 175 -185 0 -4 -21 -30 -46 -58
-26 -29 -59 -74 -75 -102 -16 -27 -29 -43 -29 -34 0 27 57 132 93 171 l34 37
-61 59 c-79 74 -297 261 -456 389 -185 149 -184 148 -189 244 l-3 80 78 -78
c44 -43 149 -133 234 -200 85 -66 193 -156 240 -198 177 -161 299 -245 355
-245 61 0 57 15 -17 66 -111 76 -468 336 -597 433 -126 95 -220 178 -252 223
-21 28 -21 30 -3 49 10 12 26 25 35 29 13 7 15 5 12 -13 -7 -36 71 -114 267
-266 96 -74 237 -186 312 -247 237 -194 311 -240 343 -214 8 7 15 24 15 39 0
20 -32 57 -151 174 -84 81 -154 146 -156 144 -2 -2 0 -15 5 -28 6 -14 6 -34 1
-47 -11 -29 -6 -32 -239 127 -194 132 -325 245 -318 276 6 34 33 40 90 22 134
-42 271 -143 562 -414 70 -66 141 -128 157 -137 28 -16 29 -16 29 1 0 113
-447 453 -754 574 -88 35 -65 38 34 4z m-271 -342 c-14 -39 -101 -166 -118
-171 -7 -3 5 19 29 49 23 29 53 74 66 101 27 53 38 63 23 21z m236 -154 c140
-112 223 -192 236 -226 20 -52 -55 -131 -133 -140 -41 -5 -49 -1 -124 54 -90
67 -207 165 -275 230 l-45 44 38 40 c21 22 52 67 69 100 l30 60 42 -33 c23
-18 96 -76 162 -129z m-401 -17 c8 -24 144 -147 365 -331 206 -171 325 -258
364 -267 18 -4 25 -10 20 -15 -15 -15 -57 6 -177 88 -285 196 -641 501 -622
532 11 18 44 13 50 -7z m-75 -94 c-7 -13 -44 -69 -83 -125 -39 -56 -102 -147
-140 -203 -39 -55 -71 -100 -72 -100 -1 0 -5 8 -8 17 -4 10 -4 14 0 10 8 -8
63 64 207 276 95 139 123 176 96 125z m416 -313 c99 -89 199 -169 258 -204 20
-12 37 -28 37 -34 0 -14 -31 -52 -204 -251 -106 -123 -121 -136 -134 -122 -14
14 -12 21 20 68 19 30 88 116 152 192 l116 138 -42 30 c-24 17 -56 42 -72 57
l-28 26 -22 -29 c-64 -88 -244 -301 -279 -331 -22 -19 -51 -35 -65 -35 -30 0
-197 139 -331 273 l-93 95 64 78 c148 181 203 251 235 301 l34 53 132 -112
c73 -62 173 -149 222 -193z m-740 -136 c21 -31 304 -290 415 -380 76 -61 168
-124 235 -161 28 -15 46 -28 42 -28 -15 0 -133 63 -224 121 -51 32 -93 55 -93
50 0 -12 66 -70 123 -110 26 -17 47 -34 47 -37 0 -17 -300 220 -414 327 -99
93 -166 181 -166 220 0 37 10 37 35 -2z m-55 -94 c-7 -8 -22 -15 -34 -16 -20
0 -20 -1 -1 -8 11 -4 30 -5 43 -2 20 6 51 -21 223 -190 116 -115 205 -211 213
-230 17 -40 31 -129 21 -129 -34 0 -307 212 -449 349 -123 119 -104 74 28 -66
178 -188 455 -383 546 -383 15 0 20 9 25 48 3 26 14 68 25 95 10 26 15 47 11
47 -4 0 -16 7 -27 16 -18 14 -18 14 6 3 47 -22 49 -27 29 -66 -12 -24 -19 -58
-19 -96 0 -107 -22 -118 -135 -62 -111 55 -277 186 -431 339 -148 149 -190
210 -196 290 -3 44 3 50 77 64 28 5 52 10 54 11 2 0 -2 -6 -9 -14z m-152 -99
c16 -62 111 -184 269 -347 142 -146 144 -151 36 -103 -29 13 -53 19 -53 14 0
-11 108 -105 190 -165 80 -58 84 -62 40 -40 -183 93 -459 353 -529 499 -27 54
-25 118 3 161 23 35 30 32 44 -19z m1397 -50 c25 -19 242 -308 288 -384 13
-20 -11 -105 -44 -158 l-30 -47 -17 24 c-9 13 -79 101 -156 194 -169 207 -188
234 -189 279 -1 40 26 84 64 103 34 18 48 16 84 -11z m-180 -121 c3 -35 12
-59 36 -89 75 -94 179 -217 258 -305 l85 -94 -69 -64 c-38 -35 -73 -63 -77
-63 -9 0 -208 241 -265 320 -75 106 -79 238 -11 316 17 19 33 33 35 30 2 -2 6
-25 8 -51z m-200 -135 c-4 8 4 4 19 -10 15 -13 46 -58 68 -100 23 -41 53 -90
67 -109 l26 -34 -32 17 c-32 16 -132 132 -159 184 -8 15 -14 35 -14 46 0 16 2
17 17 5 15 -12 16 -12 8 1z m-35 -44 c0 -22 -29 -41 -42 -28 -9 9 -7 17 7 32
18 20 35 18 35 -4z m809 -164 c-11 -71 -28 -125 -50 -153 -14 -19 -13 -11 7
40 14 35 28 87 31 117 3 29 9 51 13 49 4 -2 4 -26 -1 -53z m-1043 -151 c-40
-44 -124 -51 -186 -16 -29 16 -19 20 11 4 34 -18 116 -13 151 9 42 26 45 26
24 3z m967 -79 c14 -16 13 -19 -22 -49 -90 -75 -177 -113 -195 -85 -3 5 27 30
67 55 40 25 83 57 96 71 29 31 33 31 54 8z m239 -296 c89 -110 183 -228 211
-261 52 -63 36 -46 -125 128 -55 59 -127 126 -159 148 -32 22 -59 38 -59 35 0
-2 111 -141 246 -307 261 -321 336 -418 479 -619 49 -69 113 -156 143 -195
l53 -70 -56 60 c-32 33 -121 139 -198 235 -571 711 -705 859 -833 927 l-52 27
46 24 c25 13 63 37 85 53 22 16 44 26 49 23 5 -3 82 -97 170 -208z"/>
<path d="M2325 3068 c-126 -145 -185 -218 -201 -252 l-15 -31 28 35 c15 19 69
82 118 139 120 139 155 182 155 192 0 5 -1 9 -2 9 -2 0 -39 -42 -83 -92z"/>
<path d="M2490 2671 c15 -29 237 -259 264 -273 31 -17 -48 73 -169 192 -59 58
-102 94 -95 81z"/>
<path d="M2085 1264 c-206 -16 -400 -55 -434 -89 -12 -12 -13 -18 -2 -39 11
-21 10 -33 -9 -90 -28 -86 -73 -151 -135 -198 -27 -21 -51 -42 -53 -47 -2 -6
12 -12 30 -15 211 -34 1847 -34 2011 0 15 3 27 10 25 14 -2 5 -27 26 -57 47
-60 42 -120 131 -148 220 -15 49 -15 54 0 71 16 18 16 20 -1 35 -23 21 -143
53 -272 73 -80 12 -201 17 -505 19 -220 1 -422 1 -450 -1z m665 -34 c124 -5
252 -14 285 -20 110 -18 165 -31 161 -39 -3 -4 -116 -8 -253 -10 -136 -2 -282
-7 -323 -11 -47 -4 60 -8 283 -9 230 0 357 -5 357 -11 0 -7 -217 -11 -625 -12
-973 -4 -928 -4 -932 10 -4 9 35 12 170 12 235 0 257 14 32 20 l-180 5 55 18
c146 47 531 66 970 47z m203 -160 c54 -6 111 -17 128 -25 36 -19 72 -73 95
-144 l17 -53 69 4 c38 3 71 8 74 11 8 7 -59 137 -68 131 -4 -3 -5 3 -1 13 3
10 2 15 -2 10 -9 -8 -35 43 -28 56 7 11 33 8 33 -4 0 -24 78 -176 108 -210
l31 -36 -97 -7 c-324 -21 -1727 -15 -1750 9 -3 3 8 20 25 38 34 36 74 110 93
174 l13 42 101 3 c215 6 1066 -3 1159 -12z"/>
</g>
</svg>